<!-- Generated by IcoMoon.io -->
<svg version="1.1" xmlns="http://www.w3.org/2000/svg" width="73" height="32" viewBox="0 0 73 32">
<title>721</title>
<path fill="#d41443" d="M17.553 30.939c-0.088 0.324-1.075 0.589-2.961 0.795-1.856 0.177-3.697 0.265-5.524 0.265s-2.99-0.074-3.491-0.221c-0.501-0.177-0.751-0.457-0.751-0.84 0-0.619 1.989-7.188 5.966-19.709h-9.059c-0.412 0-0.737-0.707-0.972-2.121-0.118-0.678-0.177-1.576-0.177-2.696s0.147-2.372 0.442-3.756c0.324-1.414 0.825-2.121 1.502-2.121h17.765c1.444 0 2.357 0.324 2.74 0.972 0.324 0.501 0.486 1.164 0.486 1.989 0 0.795-0.339 2.74-1.016 5.833s-1.561 6.894-2.651 11.401c-1.061 4.507-1.827 7.91-2.298 10.208zM30.106 12.070c-0.825 0-1.547-0.972-2.165-2.917-0.589-1.944-0.884-3.815-0.884-5.612 0-0.412 0.457-0.869 1.37-1.37 0.913-0.53 2.298-1.002 4.154-1.414s3.874-0.619 6.054-0.619c8.455 0 12.683 2.961 12.683 8.882 0 1.65-0.354 3.196-1.061 4.64s-1.488 2.607-2.342 3.491c-0.854 0.854-1.856 1.65-3.005 2.386-1.326 0.825-2.593 1.473-3.8 1.944h8.838c0.177 0 0.368 0.088 0.574 0.265 0.206 0.147 0.427 0.619 0.663 1.414 0.236 0.766 0.354 1.738 0.354 2.917 0 1.149-0.074 2.121-0.221 2.917-0.147 0.766-0.324 1.326-0.53 1.679-0.442 0.795-0.84 1.223-1.193 1.282l-0.221 0.044h-19.355c-1.856 0-2.784-2.902-2.784-8.706 0-0.648 1.915-2.43 5.745-5.347 1.444-1.061 2.769-2.224 3.977-3.491s1.812-2.298 1.812-3.093c0-0.884-0.663-1.326-1.989-1.326s-2.725 0.339-4.198 1.016c-1.444 0.678-2.268 1.016-2.475 1.016zM72.894 30.939c0 0.324-0.899 0.589-2.696 0.795-1.797 0.177-3.594 0.265-5.391 0.265s-2.961-0.074-3.491-0.221c-0.501-0.177-0.751-0.457-0.751-0.84v-19.090h-4.507c-0.501 0-0.751-1.075-0.751-3.226s0.25-4.095 0.751-5.833c0.147-0.56 1.709-1.075 4.684-1.547s5.259-0.707 6.85-0.707 2.651 0.059 3.182 0.177c0.53 0.118 0.928 0.265 1.193 0.442 0.265 0.147 0.471 0.324 0.619 0.53 0.206 0.324 0.309 0.633 0.309 0.928v28.326z"></path>
</svg>
