<!-- Generated by IcoMoon.io -->
<svg version="1.1" xmlns="http://www.w3.org/2000/svg" width="28" height="32" viewBox="0 0 28 32">
<title>Group</title>
<path fill="#ffa5ba" stroke="#ffa5ba" stroke-linejoin="miter" stroke-linecap="butt" stroke-miterlimit="4" stroke-width="0.3077" d="M0.667 11.16l0 0c0.587 2.696 1.894 5.088 3.953 7.163 1.839 1.86 3.455 2.99 6.008 4.163 0 0 0 0 0.001 0l1.238 0.581v8.47h1.73v-7.901l0.159 0.047c0.229 0.066 0.567 0.066 0.796 0l0.001-0 0.159-0.046v7.901h1.73v-8.481l1.179-0.536c2.469-1.138 4.263-2.372 6.008-4.141l0-0c2.786-2.829 4.217-6.052 4.217-9.561 0.012-3.851-2.010-7-5.213-8.076-0.689-0.24-1.054-0.274-2.316-0.262M0.667 11.16l13.614-8.305-0.098-0.072M0.667 11.16c-0.134-0.615-0.202-1.454-0.205-2.276-0.003-0.82 0.059-1.636 0.194-2.201 0.723-3.189 2.943-5.549 5.82-6.152M0.667 11.16l5.808-10.629M20.317 0.482h0c0 0-0 0-0 0zM20.317 0.482c-0.658 0.006-1.070 0.020-1.444 0.074-0.376 0.054-0.709 0.146-1.208 0.303l-0.002 0c-1.188 0.385-2.356 0.994-3.133 1.632l-0.001 0.001-0.346 0.291M14.183 2.783l-0.543-0.401c-1.672-1.23-3.385-1.829-5.396-1.911l-0.001-0c-0.347-0.012-0.718-0.012-1.036-0.001-0.312 0.010-0.586 0.030-0.733 0.063M14.183 2.783l-7.708-2.251M13.159 4.233l-0-0c-0.238-0.226-0.669-0.537-1.14-0.832-0.47-0.295-0.968-0.566-1.336-0.718-0.347-0.135-1.012-0.328-1.5-0.419-1.975-0.362-3.49 0.022-4.825 1.21l-0.001 0.001c-0.282 0.247-0.581 0.571-0.795 0.844-0.103 0.131-0.183 0.245-0.232 0.33 0.064 0.012 0.147 0.027 0.243 0.044 0.238 0.042 0.56 0.096 0.909 0.154 1.231 0.192 2.186 0.449 3.209 0.942 1.020 0.492 2.103 1.215 3.592 2.33l0.001 0.001c0.605 0.464 1.625 1.059 2.651 1.541h0l0.003 0.001c0.458 0.226 0.898 0.452 1.238 0.636 0.17 0.092 0.316 0.175 0.427 0.242 0.056 0.034 0.104 0.064 0.142 0.091 0.035 0.024 0.072 0.052 0.098 0.080 0.128 0.137 0.234 0.274 0.318 0.447s0.141 0.372 0.182 0.631c0.081 0.512 0.098 1.281 0.098 2.571 0 1.17 0.003 1.784 0.034 2.135 0.015 0.175 0.036 0.271 0.061 0.332 0.022 0.055 0.049 0.089 0.096 0.135 0.246 0.24 0.583 0.23 0.762 0.031l-0-0 0.004-0.004c0.050-0.052 0.097-0.135 0.125-0.456 0.027-0.32 0.033-0.837 0.033-1.723 0-1.173 0.029-1.886 0.159-2.378 0.067-0.251 0.161-0.448 0.292-0.622 0.13-0.172 0.293-0.314 0.488-0.459l0.002-0.001c0.197-0.142 0.368-0.235 0.647-0.308 0.27-0.071 0.643-0.124 1.24-0.193l0.001-0c1.864-0.207 2.941-0.447 4.23-0.937h0c0.405-0.154 0.704-0.268 0.927-0.371 0.225-0.103 0.357-0.188 0.439-0.273 0.076-0.079 0.115-0.168 0.134-0.302 0.020-0.142 0.014-0.324 0.002-0.588h-0l-0-0.003c-0.012-0.46-0.128-1.233-0.256-1.707l-0-0.001c-0.709-2.681-2.921-4.56-5.316-4.56-1.787 0-3.967 0.84-5.314 2.061l-0.001 0.001c-0.22 0.197-0.405 0.352-0.572 0.459s-0.327 0.175-0.495 0.182c-0.17 0.007-0.327-0.050-0.486-0.149-0.156-0.098-0.323-0.242-0.517-0.425zM3.187 4.621c-0.002-0.001-0.003-0.001-0.003-0.001s0.001 0 0.003 0.001zM9.013 8.597l-0.001-0.001c-1.232-0.914-2.577-1.584-3.762-1.879-0.543-0.131-1.235-0.239-1.803-0.295-0.284-0.028-0.533-0.042-0.715-0.040-0.091 0.001-0.16 0.006-0.206 0.015-0.007 0.001-0.013 0.002-0.018 0.004-0.049 0.096-0.1 0.264-0.148 0.496-0.052 0.252-0.095 0.561-0.127 0.893-0.063 0.665-0.077 1.407-0.019 1.947 0.316 2.926 1.588 5.398 4.032 7.743l0 0c1.927 1.865 4.325 3.319 7.043 4.235v0l0.002 0.001 0.862 0.305 0.874-0.306c2.542-0.871 5.036-2.326 6.844-4.018 1.246-1.168 1.889-1.964 2.711-3.37l0.001-0.001c0.254-0.428 0.603-1.203 0.874-1.892 0.135-0.344 0.248-0.661 0.32-0.899 0.026-0.086 0.045-0.159 0.058-0.218-0.042 0.011-0.091 0.025-0.145 0.041-0.2 0.059-0.473 0.151-0.767 0.259l-0.001 0c-1.188 0.432-2.967 0.816-4.402 0.944l-0.001 0c-0.021 0.002-0.042 0.004-0.063 0.005-0.323 0.027-0.548 0.045-0.715 0.089-0.166 0.044-0.252 0.106-0.311 0.216-0.067 0.126-0.107 0.328-0.127 0.676-0.018 0.322-0.018 0.746-0.018 1.313 0 0.039 0 0.080 0 0.121 0 1.098-0.014 1.745-0.096 2.184-0.042 0.223-0.102 0.398-0.189 0.553-0.087 0.154-0.196 0.283-0.328 0.417-0.235 0.247-0.47 0.425-0.733 0.54s-0.547 0.164-0.871 0.164c-0.5 0-0.927-0.099-1.284-0.317s-0.63-0.547-0.835-0.983l-0-0c-0.105-0.223-0.164-0.436-0.198-0.864-0.033-0.423-0.042-1.067-0.042-2.156 0-0.906-0.009-1.537-0.031-1.957-0.011-0.21-0.025-0.363-0.042-0.47-0.008-0.053-0.017-0.091-0.025-0.117-0.006-0.018-0.009-0.025-0.010-0.027 0 0 0 0 0 0-0.001-0.001-0.007-0.008-0.023-0.020s-0.039-0.029-0.068-0.048c-0.058-0.037-0.134-0.082-0.225-0.13-0.182-0.097-0.415-0.208-0.654-0.31-1.006-0.42-2.333-1.164-3.138-1.761-0.296-0.219-0.959-0.703-1.48-1.084l-0.001-0.001zM2.49 6.407c-0.002 0.001-0.002 0.001 0-0l-0 0zM2.526 6.369l-0.001 0.002c0-0.001 0.001-0.001 0.001-0.002z"></path>
</svg>
