<!-- Generated by IcoMoon.io -->
<svg version="1.1" xmlns="http://www.w3.org/2000/svg" width="84" height="32" viewBox="0 0 84 32">
<title>kg</title>
<path fill="#d41443" d="M13.501 25.954c0 0.247-0.686 0.45-2.058 0.607-1.372 0.135-2.745 0.202-4.117 0.202s-2.261-0.056-2.666-0.169c-0.382-0.135-0.574-0.349-0.574-0.641v-14.578h-3.442c-0.382 0-0.574-0.821-0.574-2.463s0.191-3.127 0.574-4.454c0.112-0.427 1.305-0.821 3.577-1.181s4.016-0.54 5.231-0.54c1.215 0 2.025 0.045 2.43 0.135s0.709 0.202 0.911 0.337c0.202 0.112 0.36 0.247 0.472 0.405 0.158 0.247 0.236 0.484 0.236 0.709v21.631zM26.632 12.017c0.202-0.18 0.742-0.416 1.62-0.709s1.867-0.439 2.97-0.439c1.125 0 2.070 0.169 2.835 0.506 0.787 0.315 1.395 0.72 1.822 1.215 0.45 0.495 0.799 1.114 1.046 1.856 0.405 1.215 0.607 2.452 0.607 3.712s-0.056 2.216-0.169 2.868c-0.090 0.63-0.337 1.339-0.742 2.126-0.383 0.787-0.911 1.451-1.586 1.991-0.652 0.54-1.597 1.001-2.835 1.384-1.215 0.36-2.643 0.54-4.286 0.54-3.532 0-6.198-0.967-7.998-2.902-1.8-1.957-2.7-5.107-2.7-9.449 0-4.364 0.844-7.503 2.531-9.415 1.687-1.935 4.252-2.902 7.694-2.902 2.362 0 4.409 0.18 6.142 0.54 1.755 0.337 2.632 0.742 2.632 1.215 0 0.585-0.225 1.609-0.675 3.071-0.427 1.462-0.821 2.193-1.181 2.193-0.112 0-0.45-0.056-1.012-0.169-1.53-0.315-2.925-0.472-4.184-0.472s-2.070 0.315-2.43 0.945c-0.36 0.607-0.54 1.507-0.54 2.7 0.090-0.112 0.236-0.247 0.439-0.405zM27.375 15.054c-0.652 0-0.979 1.215-0.979 3.645 0 2.407 0.326 3.611 0.979 3.611 0.697 0 1.046-1.204 1.046-3.611 0-2.43-0.349-3.645-1.046-3.645zM50.19 25.954c0 0.247-0.63 0.45-1.89 0.607-1.26 0.135-2.576 0.202-3.948 0.202s-2.261-0.056-2.666-0.169c-0.405-0.135-0.607-0.349-0.607-0.641v-23.352c0-0.495 0.63-0.979 1.89-1.451 1.282-0.472 2.655-0.709 4.117-0.709 2.070 0 3.105 0.517 3.105 1.552v12.621h0.439c1.080-5.152 1.879-7.728 2.396-7.728 1.305 0 2.88 0.304 4.724 0.911s2.767 1.282 2.767 2.025c0 0.54-0.45 1.575-1.35 3.105s-1.834 2.778-2.801 3.746c3.217 3.847 4.826 6.13 4.826 6.85 0 0.675-1.024 1.496-3.071 2.463s-3.487 1.451-4.319 1.451c-0.405 0-0.832-0.484-1.282-1.451-0.45-0.99-0.934-2.463-1.451-4.421l-0.877 1.046v3.341zM75.153 24.536v-1.957h-0.27c-0.090 0.112-0.248 0.259-0.472 0.439-0.225 0.157-0.788 0.382-1.687 0.675-0.877 0.292-1.879 0.439-3.003 0.439-1.103 0-2.036-0.169-2.801-0.506s-1.361-0.754-1.788-1.249c-0.428-0.517-0.765-1.204-1.012-2.058-0.383-1.327-0.574-3.127-0.574-5.399 0-2.61 0.551-4.612 1.654-6.007 0.427-0.562 1.057-1.035 1.89-1.417 0.855-0.405 1.766-0.607 2.733-0.607s1.766 0.112 2.396 0.337c0.63 0.202 1.102 0.45 1.417 0.742 0.63 0.63 0.99 1.181 1.080 1.654l0.034 0.304h0.27l0.304-1.316c0.225-0.945 2.002-1.417 5.332-1.417 1.485 0 2.384 0.225 2.7 0.675 0.18 0.27 0.292 0.529 0.337 0.776 0.045 0.225 0.067 0.574 0.067 1.046v14.139c0 2.655-0.866 4.679-2.598 6.074s-4.275 2.092-7.626 2.092c-3.555 0-5.973-0.349-7.255-1.046-0.563-0.315-0.844-0.641-0.844-0.979 0-0.54 0.214-1.451 0.641-2.733 0.45-1.282 0.866-1.924 1.249-1.924 0.090 0 0.405 0.079 0.945 0.236 1.709 0.45 3.093 0.675 4.151 0.675 1.080 0 1.8-0.135 2.16-0.405 0.382-0.27 0.574-0.697 0.574-1.282zM73.804 20.285c0.247 0 0.45-0.090 0.607-0.27s0.236-0.382 0.236-0.607v-6.952c-0.090-0.472-0.337-0.709-0.742-0.709-0.855 0-1.282 1.406-1.282 4.218 0 1.305 0.101 2.351 0.304 3.138 0.225 0.787 0.517 1.181 0.877 1.181z"></path>
</svg>
