<svg aria-hidden="true" style="position: absolute; width: 0; height: 0; overflow: hidden;" version="1.1" xmlns="http://www.w3.org/2000/svg" xmlns:xlink="http://www.w3.org/1999/xlink">
<defs>
<symbol id="icon-sectionbg1-1-1" viewBox="0 0 74 32">
<path d="M0 0h73.704v32h-73.704v-32z"></path>
</symbol>
<symbol id="icon-apples-svgrepo-com-1" viewBox="0 0 32 32">
<path fill="#ffa5ba" style="fill: var(--color1, #ffa5ba)" d="M29.626 21.411c-1.292-0.458-2.382-0.344-3.242 0.018 0.145-0.877 0.47-1.832 1.17-2.481 0.431-0.4 0.456-1.074 0.056-1.505s-1.074-0.456-1.505-0.056c-1.229 1.14-1.706 2.748-1.874 4.081-0.32-0.144-0.673-0.253-1.058-0.311l1.89-9.83c0.060-0.312-0.022-0.634-0.225-0.879s-0.503-0.387-0.821-0.387h-0.204c0.094-0.5 0.141-0.997 0.137-1.47-0.016-1.994-0.903-3.495-2.374-4.017-1.41-0.5-2.59-0.35-3.507 0.066 0.145-0.976 0.494-2.063 1.282-2.794 0.431-0.4 0.456-1.074 0.056-1.505s-1.074-0.456-1.505-0.056c-1.32 1.225-1.815 2.965-1.982 4.386-0.735-0.348-1.644-0.527-2.708-0.33-1.094-1.571-2.613-2.296-4.089-1.942-1.451 0.349-2.358 1.115-2.901 1.962-0.41-0.899-0.712-2.001-0.452-3.036 0.143-0.57-0.203-1.149-0.773-1.292s-1.149 0.203-1.292 0.773c-0.439 1.746 0.095 3.476 0.729 4.758-1.016 0.137-2.117 0.65-3.049 1.866-0.578 0.755-0.773 1.698-0.596 2.7-0.173 0.065-0.329 0.173-0.449 0.318-0.202 0.245-0.285 0.567-0.225 0.879l3.809 19.809c0.096 0.501 0.535 0.864 1.046 0.864h15.237c0.511 0 0.949-0.362 1.046-0.864l0.038-0.195c0.287 0.198 0.596 0.363 0.927 0.487 1.266 0.471 2.447 0.278 3.044 0.118 0.316 0.085 0.795 0.179 1.364 0.179 0.506 0 1.084-0.075 1.68-0.297 2.36-0.879 3.615-3.839 3.596-6.178-0.015-1.904-0.866-3.339-2.276-3.839zM22.674 12.19c-0.49 4.705-4.452 7.91-9.971 7.91s-9.481-3.204-9.971-7.91h19.942zM16.032 7.515c0.184 0.349 0.536 0.567 0.93 0.567s0.746-0.218 0.93-0.567c0.029-0.048 0.29-0.466 0.769-0.777 0.629-0.408 1.35-0.46 2.203-0.157 0.851 0.302 0.952 1.518 0.956 2.027 0.004 0.463-0.064 0.962-0.191 1.453h-7.126c0.236-1.19 0.094-2.492-0.289-3.669 0.377 0.022 0.724 0.137 1.047 0.346 0.479 0.311 0.74 0.729 0.769 0.777zM3.077 8.724c0.55-0.719 1.182-1.068 1.932-1.069h0.002c0.57 0 1.016 0.208 1.066 0.232 0.341 0.189 0.749 0.172 1.079-0.037 0.331-0.211 0.51-0.592 0.481-0.983-0.006-0.077-0.116-1.893 1.983-2.397 0.876-0.211 1.625 0.754 1.906 1.178 0.807 1.22 1.221 3.108 0.777 4.413h-9.349c-0.141-0.443-0.179-0.943 0.122-1.336zM5.851 29.87l-2.111-10.978c0.138 0.133 0.281 0.263 0.427 0.389 2.208 1.901 5.239 2.948 8.535 2.948s6.328-1.047 8.535-2.948c0.052-0.044 0.102-0.090 0.152-0.135l-0.431 2.243c-0.020 0.007-0.041 0.013-0.061 0.021-1.41 0.5-2.261 1.935-2.276 3.839-0.009 1.164 0.297 2.483 0.898 3.622l-0.192 0.999h-13.477zM27.562 29.432c-0.943 0.351-1.881 0.017-1.916 0.005-0.25-0.097-0.518-0.099-0.768-0-0.009 0.004-0.96 0.352-1.917-0.005-1.338-0.498-2.223-2.556-2.21-4.165 0.004-0.466 0.095-1.578 0.858-1.849 0.349-0.124 0.661-0.175 0.939-0.175 1.108 0 1.657 0.812 1.782 1.024 0.184 0.35 0.535 0.569 0.931 0.569s0.747-0.219 0.931-0.569c0.156-0.265 0.977-1.468 2.721-0.849 0.763 0.271 0.854 1.383 0.858 1.849 0.013 1.609-0.872 3.667-2.21 4.166z"></path>
</symbol>
<symbol id="icon-Frame-4" viewBox="0 0 32 32">
<path fill="#ffa5ba" style="fill: var(--color1, #ffa5ba)" d="M8.093 0.144c-0.35 0.188-0.553 0.563-0.553 1.006 0.006 0.813 0.209 1.556 0.614 2.2l0.178 0.294-0.338 0.381c-0.381 0.425-0.473 0.581-0.645 1.088-0.141 0.412-0.153 1.162-0.031 1.581 0.43 1.438 1.854 2.269 3.248 1.9 0.473-0.125 0.761-0.281 1.203-0.656l0.375-0.312 0.35 0.175c0.196 0.1 0.528 0.244 0.743 0.325l0.381 0.138v0.7c0 1.106 0.227 1.762 0.81 2.356s1.498 0.9 2.29 0.762c0.565-0.1 1.117-0.381 1.492-0.762 0.583-0.594 0.81-1.25 0.81-2.356v-0.7l0.387-0.138c0.209-0.081 0.54-0.225 0.737-0.325l0.35-0.175 0.375 0.312c0.442 0.375 0.731 0.531 1.203 0.656 1.394 0.369 2.818-0.462 3.248-1.9 0.123-0.419 0.111-1.169-0.031-1.581-0.172-0.506-0.264-0.662-0.645-1.088l-0.338-0.381 0.178-0.294c0.405-0.644 0.608-1.387 0.614-2.2 0-0.444-0.203-0.819-0.553-1.006l-0.264-0.144h-15.926l-0.264 0.144zM22.828 2.1c0 0.019-0.178 0.313-0.399 0.663-0.651 1.031-0.626 1.256 0.239 2.169 0.313 0.331 0.602 0.662 0.645 0.737 0.233 0.463-0.233 1.038-0.749 0.919-0.123-0.025-0.393-0.244-0.786-0.631-0.786-0.775-1.056-0.862-1.658-0.519-0.694 0.4-1.578 0.806-2.008 0.925-0.608 0.175-0.817 0.306-0.976 0.638-0.129 0.256-0.141 0.362-0.141 1.362 0 1.231-0.049 1.431-0.399 1.6-0.252 0.125-0.301 0.125-0.553 0-0.35-0.169-0.399-0.369-0.399-1.6 0-1-0.012-1.106-0.135-1.362-0.166-0.325-0.375-0.463-0.982-0.638-0.528-0.15-1.308-0.494-1.738-0.775-0.405-0.263-0.761-0.362-1.044-0.313-0.184 0.037-0.368 0.181-0.86 0.662-0.405 0.394-0.694 0.625-0.817 0.65-0.51 0.119-0.976-0.463-0.743-0.919 0.043-0.075 0.332-0.406 0.645-0.737 0.866-0.912 0.89-1.138 0.239-2.169-0.221-0.35-0.399-0.644-0.399-0.663 0-0.025 2.929-0.038 6.508-0.038s6.508 0.013 6.508 0.038z"></path>
<path fill="#ffa5ba" style="fill: var(--color1, #ffa5ba)" d="M6.245 13.206c-0.313 0.212-0.485 0.512-0.485 0.844 0 0.225 3.119 16.925 3.229 17.275 0.055 0.194 0.282 0.425 0.522 0.55 0.227 0.125 0.387 0.125 6.809 0.125s6.582 0 6.809-0.125c0.239-0.125 0.467-0.356 0.522-0.55 0.11-0.35 3.229-17.050 3.229-17.275 0-0.331-0.172-0.631-0.485-0.844l-0.209-0.144h-19.732l-0.209 0.144zM24.455 15.481c-0.061 0.5-0.418 1.587-0.682 2.081-1.283 2.375-3.714 3.819-6.729 3.988-2.278 0.131-4.206-0.331-5.82-1.394-0.933-0.612-1.713-1.45-2.265-2.438-0.307-0.544-0.712-1.712-0.774-2.237l-0.043-0.356h16.356l-0.043 0.356zM10.15 21.919c2.634 1.775 6.569 2.244 9.885 1.169 1.105-0.356 2.235-0.956 3.18-1.688 0.276-0.219 0.295-0.219 0.264-0.081-0.018 0.081-0.381 1.994-0.804 4.244s-0.78 4.156-0.798 4.231l-0.031 0.144h-11.051l-0.031-0.144c-0.018-0.075-0.375-1.981-0.798-4.231s-0.786-4.163-0.804-4.244c-0.031-0.137-0.012-0.137 0.264 0.081 0.16 0.125 0.491 0.356 0.724 0.519z"></path>
</symbol>
<symbol id="icon-84" viewBox="0 0 54 32">
<path fill="#d41443" style="fill: var(--color2, #d41443)" d="M26.103 21.587c0 6.705-4.316 10.057-12.949 10.057-8.604 0-12.906-3.352-12.906-10.057 0-3.021 0.691-5.295 2.072-6.82-0.374-0.432-0.719-1.18-1.036-2.244-0.317-1.093-0.475-2.172-0.475-3.237 0-3.309 1.050-5.654 3.151-7.036 2.101-1.41 5.165-2.115 9.194-2.115s7.093 0.705 9.194 2.115c2.129 1.381 3.194 3.726 3.194 7.036 0 1.065-0.158 2.144-0.475 3.237-0.317 1.065-0.662 1.813-1.036 2.244 1.381 1.525 2.072 3.798 2.072 6.82zM11.773 21.89c0 1.439 0.115 2.388 0.345 2.849 0.23 0.432 0.575 0.647 1.036 0.647 0.489 0 0.834-0.216 1.036-0.647 0.23-0.46 0.345-1.41 0.345-2.849s-0.115-2.388-0.345-2.849c-0.201-0.489-0.547-0.734-1.036-0.734-0.46 0-0.806 0.245-1.036 0.734-0.23 0.46-0.345 1.41-0.345 2.849zM13.197 11.574c0.892 0 1.338-0.849 1.338-2.547 0-1.726-0.446-2.59-1.338-2.59-0.95 0-1.424 0.863-1.424 2.59 0 1.698 0.475 2.547 1.424 2.547zM54.080 30.22c0 0.317-0.878 0.575-2.633 0.777-1.755 0.173-3.511 0.259-5.266 0.259s-2.892-0.072-3.41-0.216c-0.489-0.173-0.734-0.446-0.734-0.82v-5.309h-10.791c-0.978 0-1.468-2.388-1.468-7.165 0-0.547 1.165-2.892 3.496-7.036 2.36-4.144 3.985-6.863 4.877-8.158 0.345-0.489 1.64-0.95 3.885-1.381s4.431-0.647 6.561-0.647c3.654 0 5.482 0.676 5.482 2.029v27.667zM42.772 18.177l0.043-9.409-3.021 9.409h2.978z"></path>
</symbol>
<symbol id="icon-721" viewBox="0 0 73 32">
<path fill="#d41443" style="fill: var(--color2, #d41443)" d="M17.553 30.939c-0.088 0.324-1.075 0.589-2.961 0.795-1.856 0.177-3.697 0.265-5.524 0.265s-2.99-0.074-3.491-0.221c-0.501-0.177-0.751-0.457-0.751-0.84 0-0.619 1.989-7.188 5.966-19.709h-9.059c-0.412 0-0.737-0.707-0.972-2.121-0.118-0.678-0.177-1.576-0.177-2.696s0.147-2.372 0.442-3.756c0.324-1.414 0.825-2.121 1.502-2.121h17.765c1.444 0 2.357 0.324 2.74 0.972 0.324 0.501 0.486 1.164 0.486 1.989 0 0.795-0.339 2.74-1.016 5.833s-1.561 6.894-2.651 11.401c-1.061 4.507-1.827 7.91-2.298 10.208zM30.106 12.070c-0.825 0-1.547-0.972-2.165-2.917-0.589-1.944-0.884-3.815-0.884-5.612 0-0.412 0.457-0.869 1.37-1.37 0.913-0.53 2.298-1.002 4.154-1.414s3.874-0.619 6.054-0.619c8.455 0 12.683 2.961 12.683 8.882 0 1.65-0.354 3.196-1.061 4.64s-1.488 2.607-2.342 3.491c-0.854 0.854-1.856 1.65-3.005 2.386-1.326 0.825-2.593 1.473-3.8 1.944h8.838c0.177 0 0.368 0.088 0.574 0.265 0.206 0.147 0.427 0.619 0.663 1.414 0.236 0.766 0.354 1.738 0.354 2.917 0 1.149-0.074 2.121-0.221 2.917-0.147 0.766-0.324 1.326-0.53 1.679-0.442 0.795-0.84 1.223-1.193 1.282l-0.221 0.044h-19.355c-1.856 0-2.784-2.902-2.784-8.706 0-0.648 1.915-2.43 5.745-5.347 1.444-1.061 2.769-2.224 3.977-3.491s1.812-2.298 1.812-3.093c0-0.884-0.663-1.326-1.989-1.326s-2.725 0.339-4.198 1.016c-1.444 0.678-2.268 1.016-2.475 1.016zM72.894 30.939c0 0.324-0.899 0.589-2.696 0.795-1.797 0.177-3.594 0.265-5.391 0.265s-2.961-0.074-3.491-0.221c-0.501-0.177-0.751-0.457-0.751-0.84v-19.090h-4.507c-0.501 0-0.751-1.075-0.751-3.226s0.25-4.095 0.751-5.833c0.147-0.56 1.709-1.075 4.684-1.547s5.259-0.707 6.85-0.707 2.651 0.059 3.182 0.177c0.53 0.118 0.928 0.265 1.193 0.442 0.265 0.147 0.471 0.324 0.619 0.53 0.206 0.324 0.309 0.633 0.309 0.928v28.326z"></path>
</symbol>
<symbol id="icon-kg" viewBox="0 0 84 32">
<path fill="#d41443" style="fill: var(--color2, #d41443)" d="M13.501 25.954c0 0.247-0.686 0.45-2.058 0.607-1.372 0.135-2.745 0.202-4.117 0.202s-2.261-0.056-2.666-0.169c-0.382-0.135-0.574-0.349-0.574-0.641v-14.578h-3.442c-0.382 0-0.574-0.821-0.574-2.463s0.191-3.127 0.574-4.454c0.112-0.427 1.305-0.821 3.577-1.181s4.016-0.54 5.231-0.54c1.215 0 2.025 0.045 2.43 0.135s0.709 0.202 0.911 0.337c0.202 0.112 0.36 0.247 0.472 0.405 0.158 0.247 0.236 0.484 0.236 0.709v21.631zM26.632 12.017c0.202-0.18 0.742-0.416 1.62-0.709s1.867-0.439 2.97-0.439c1.125 0 2.070 0.169 2.835 0.506 0.787 0.315 1.395 0.72 1.822 1.215 0.45 0.495 0.799 1.114 1.046 1.856 0.405 1.215 0.607 2.452 0.607 3.712s-0.056 2.216-0.169 2.868c-0.090 0.63-0.337 1.339-0.742 2.126-0.383 0.787-0.911 1.451-1.586 1.991-0.652 0.54-1.597 1.001-2.835 1.384-1.215 0.36-2.643 0.54-4.286 0.54-3.532 0-6.198-0.967-7.998-2.902-1.8-1.957-2.7-5.107-2.7-9.449 0-4.364 0.844-7.503 2.531-9.415 1.687-1.935 4.252-2.902 7.694-2.902 2.362 0 4.409 0.18 6.142 0.54 1.755 0.337 2.632 0.742 2.632 1.215 0 0.585-0.225 1.609-0.675 3.071-0.427 1.462-0.821 2.193-1.181 2.193-0.112 0-0.45-0.056-1.012-0.169-1.53-0.315-2.925-0.472-4.184-0.472s-2.070 0.315-2.43 0.945c-0.36 0.607-0.54 1.507-0.54 2.7 0.090-0.112 0.236-0.247 0.439-0.405zM27.375 15.054c-0.652 0-0.979 1.215-0.979 3.645 0 2.407 0.326 3.611 0.979 3.611 0.697 0 1.046-1.204 1.046-3.611 0-2.43-0.349-3.645-1.046-3.645zM50.19 25.954c0 0.247-0.63 0.45-1.89 0.607-1.26 0.135-2.576 0.202-3.948 0.202s-2.261-0.056-2.666-0.169c-0.405-0.135-0.607-0.349-0.607-0.641v-23.352c0-0.495 0.63-0.979 1.89-1.451 1.282-0.472 2.655-0.709 4.117-0.709 2.070 0 3.105 0.517 3.105 1.552v12.621h0.439c1.080-5.152 1.879-7.728 2.396-7.728 1.305 0 2.88 0.304 4.724 0.911s2.767 1.282 2.767 2.025c0 0.54-0.45 1.575-1.35 3.105s-1.834 2.778-2.801 3.746c3.217 3.847 4.826 6.13 4.826 6.85 0 0.675-1.024 1.496-3.071 2.463s-3.487 1.451-4.319 1.451c-0.405 0-0.832-0.484-1.282-1.451-0.45-0.99-0.934-2.463-1.451-4.421l-0.877 1.046v3.341zM75.153 24.536v-1.957h-0.27c-0.090 0.112-0.248 0.259-0.472 0.439-0.225 0.157-0.788 0.382-1.687 0.675-0.877 0.292-1.879 0.439-3.003 0.439-1.103 0-2.036-0.169-2.801-0.506s-1.361-0.754-1.788-1.249c-0.428-0.517-0.765-1.204-1.012-2.058-0.383-1.327-0.574-3.127-0.574-5.399 0-2.61 0.551-4.612 1.654-6.007 0.427-0.562 1.057-1.035 1.89-1.417 0.855-0.405 1.766-0.607 2.733-0.607s1.766 0.112 2.396 0.337c0.63 0.202 1.102 0.45 1.417 0.742 0.63 0.63 0.99 1.181 1.080 1.654l0.034 0.304h0.27l0.304-1.316c0.225-0.945 2.002-1.417 5.332-1.417 1.485 0 2.384 0.225 2.7 0.675 0.18 0.27 0.292 0.529 0.337 0.776 0.045 0.225 0.067 0.574 0.067 1.046v14.139c0 2.655-0.866 4.679-2.598 6.074s-4.275 2.092-7.626 2.092c-3.555 0-5.973-0.349-7.255-1.046-0.563-0.315-0.844-0.641-0.844-0.979 0-0.54 0.214-1.451 0.641-2.733 0.45-1.282 0.866-1.924 1.249-1.924 0.090 0 0.405 0.079 0.945 0.236 1.709 0.45 3.093 0.675 4.151 0.675 1.080 0 1.8-0.135 2.16-0.405 0.382-0.27 0.574-0.697 0.574-1.282zM73.804 20.285c0.247 0 0.45-0.090 0.607-0.27s0.236-0.382 0.236-0.607v-6.952c-0.090-0.472-0.337-0.709-0.742-0.709-0.855 0-1.282 1.406-1.282 4.218 0 1.305 0.101 2.351 0.304 3.138 0.225 0.787 0.517 1.181 0.877 1.181z"></path>
</symbol>
<symbol id="icon-Group" viewBox="0 0 28 32">
<path fill="#ffa5ba" style="fill: var(--color1, #ffa5ba); stroke: var(--color1, #ffa5ba)" stroke="#ffa5ba" stroke-linejoin="miter" stroke-linecap="butt" stroke-miterlimit="4" stroke-width="0.3077" d="M0.667 11.16l0 0c0.587 2.696 1.894 5.088 3.953 7.163 1.839 1.86 3.455 2.99 6.008 4.163 0 0 0 0 0.001 0l1.238 0.581v8.47h1.73v-7.901l0.159 0.047c0.229 0.066 0.567 0.066 0.796 0l0.001-0 0.159-0.046v7.901h1.73v-8.481l1.179-0.536c2.469-1.138 4.263-2.372 6.008-4.141l0-0c2.786-2.829 4.217-6.052 4.217-9.561 0.012-3.851-2.010-7-5.213-8.076-0.689-0.24-1.054-0.274-2.316-0.262M0.667 11.16l13.614-8.305-0.098-0.072M0.667 11.16c-0.134-0.615-0.202-1.454-0.205-2.276-0.003-0.82 0.059-1.636 0.194-2.201 0.723-3.189 2.943-5.549 5.82-6.152M0.667 11.16l5.808-10.629M20.317 0.482h0c0 0-0 0-0 0zM20.317 0.482c-0.658 0.006-1.070 0.020-1.444 0.074-0.376 0.054-0.709 0.146-1.208 0.303l-0.002 0c-1.188 0.385-2.356 0.994-3.133 1.632l-0.001 0.001-0.346 0.291M14.183 2.783l-0.543-0.401c-1.672-1.23-3.385-1.829-5.396-1.911l-0.001-0c-0.347-0.012-0.718-0.012-1.036-0.001-0.312 0.010-0.586 0.030-0.733 0.063M14.183 2.783l-7.708-2.251M13.159 4.233l-0-0c-0.238-0.226-0.669-0.537-1.14-0.832-0.47-0.295-0.968-0.566-1.336-0.718-0.347-0.135-1.012-0.328-1.5-0.419-1.975-0.362-3.49 0.022-4.825 1.21l-0.001 0.001c-0.282 0.247-0.581 0.571-0.795 0.844-0.103 0.131-0.183 0.245-0.232 0.33 0.064 0.012 0.147 0.027 0.243 0.044 0.238 0.042 0.56 0.096 0.909 0.154 1.231 0.192 2.186 0.449 3.209 0.942 1.020 0.492 2.103 1.215 3.592 2.33l0.001 0.001c0.605 0.464 1.625 1.059 2.651 1.541h0l0.003 0.001c0.458 0.226 0.898 0.452 1.238 0.636 0.17 0.092 0.316 0.175 0.427 0.242 0.056 0.034 0.104 0.064 0.142 0.091 0.035 0.024 0.072 0.052 0.098 0.080 0.128 0.137 0.234 0.274 0.318 0.447s0.141 0.372 0.182 0.631c0.081 0.512 0.098 1.281 0.098 2.571 0 1.17 0.003 1.784 0.034 2.135 0.015 0.175 0.036 0.271 0.061 0.332 0.022 0.055 0.049 0.089 0.096 0.135 0.246 0.24 0.583 0.23 0.762 0.031l-0-0 0.004-0.004c0.050-0.052 0.097-0.135 0.125-0.456 0.027-0.32 0.033-0.837 0.033-1.723 0-1.173 0.029-1.886 0.159-2.378 0.067-0.251 0.161-0.448 0.292-0.622 0.13-0.172 0.293-0.314 0.488-0.459l0.002-0.001c0.197-0.142 0.368-0.235 0.647-0.308 0.27-0.071 0.643-0.124 1.24-0.193l0.001-0c1.864-0.207 2.941-0.447 4.23-0.937h0c0.405-0.154 0.704-0.268 0.927-0.371 0.225-0.103 0.357-0.188 0.439-0.273 0.076-0.079 0.115-0.168 0.134-0.302 0.020-0.142 0.014-0.324 0.002-0.588h-0l-0-0.003c-0.012-0.46-0.128-1.233-0.256-1.707l-0-0.001c-0.709-2.681-2.921-4.56-5.316-4.56-1.787 0-3.967 0.84-5.314 2.061l-0.001 0.001c-0.22 0.197-0.405 0.352-0.572 0.459s-0.327 0.175-0.495 0.182c-0.17 0.007-0.327-0.050-0.486-0.149-0.156-0.098-0.323-0.242-0.517-0.425zM3.187 4.621c-0.002-0.001-0.003-0.001-0.003-0.001s0.001 0 0.003 0.001zM9.013 8.597l-0.001-0.001c-1.232-0.914-2.577-1.584-3.762-1.879-0.543-0.131-1.235-0.239-1.803-0.295-0.284-0.028-0.533-0.042-0.715-0.040-0.091 0.001-0.16 0.006-0.206 0.015-0.007 0.001-0.013 0.002-0.018 0.004-0.049 0.096-0.1 0.264-0.148 0.496-0.052 0.252-0.095 0.561-0.127 0.893-0.063 0.665-0.077 1.407-0.019 1.947 0.316 2.926 1.588 5.398 4.032 7.743l0 0c1.927 1.865 4.325 3.319 7.043 4.235v0l0.002 0.001 0.862 0.305 0.874-0.306c2.542-0.871 5.036-2.326 6.844-4.018 1.246-1.168 1.889-1.964 2.711-3.37l0.001-0.001c0.254-0.428 0.603-1.203 0.874-1.892 0.135-0.344 0.248-0.661 0.32-0.899 0.026-0.086 0.045-0.159 0.058-0.218-0.042 0.011-0.091 0.025-0.145 0.041-0.2 0.059-0.473 0.151-0.767 0.259l-0.001 0c-1.188 0.432-2.967 0.816-4.402 0.944l-0.001 0c-0.021 0.002-0.042 0.004-0.063 0.005-0.323 0.027-0.548 0.045-0.715 0.089-0.166 0.044-0.252 0.106-0.311 0.216-0.067 0.126-0.107 0.328-0.127 0.676-0.018 0.322-0.018 0.746-0.018 1.313 0 0.039 0 0.080 0 0.121 0 1.098-0.014 1.745-0.096 2.184-0.042 0.223-0.102 0.398-0.189 0.553-0.087 0.154-0.196 0.283-0.328 0.417-0.235 0.247-0.47 0.425-0.733 0.54s-0.547 0.164-0.871 0.164c-0.5 0-0.927-0.099-1.284-0.317s-0.63-0.547-0.835-0.983l-0-0c-0.105-0.223-0.164-0.436-0.198-0.864-0.033-0.423-0.042-1.067-0.042-2.156 0-0.906-0.009-1.537-0.031-1.957-0.011-0.21-0.025-0.363-0.042-0.47-0.008-0.053-0.017-0.091-0.025-0.117-0.006-0.018-0.009-0.025-0.010-0.027 0 0 0 0 0 0-0.001-0.001-0.007-0.008-0.023-0.020s-0.039-0.029-0.068-0.048c-0.058-0.037-0.134-0.082-0.225-0.13-0.182-0.097-0.415-0.208-0.654-0.31-1.006-0.42-2.333-1.164-3.138-1.761-0.296-0.219-0.959-0.703-1.48-1.084l-0.001-0.001zM2.49 6.407c-0.002 0.001-0.002 0.001 0-0l-0 0zM2.526 6.369l-0.001 0.002c0-0.001 0.001-0.001 0.001-0.002z"></path>
</symbol>
</defs>
</svg>
