<svg width="50" height="48" viewBox="0 0 50 48" fill="none" xmlns="http://www.w3.org/2000/svg">
<path d="M18.5144 0.877464C6.94289 4.38148 0 13.4919 0 25.0051C0 34.4159 4.82984 42.6253 12.779 46.73C16.9044 48.8324 17.5082 47.3307 13.6845 44.4273C10.9678 42.2248 10.4647 41.2237 10.4647 37.5194C10.4647 34.9164 9.86092 32.814 8.95533 32.0131C7.14414 30.5114 6.94289 26.6069 8.75408 25.2053C9.45844 24.6046 10.1628 22.6023 10.2634 20.8003C10.7665 14.1927 17.9107 7.9856 25.0548 7.9856C32.1989 7.9856 39.3431 14.1927 39.8462 20.8003C39.9468 22.6023 40.6511 24.6046 41.3555 25.2053C43.1667 26.6069 42.9654 30.5114 41.1543 32.0131C40.2487 32.814 39.6449 34.9164 39.6449 37.5194C39.6449 41.2237 39.1418 42.2248 36.425 44.4273C32.1989 47.7311 33.4064 48.9325 38.1356 46.0292C44.7766 41.9245 49.7071 33.0143 49.7071 25.1052C49.7071 9.28709 33.2051 -3.52758 18.5144 0.877464Z" fill="#D41443"/>
</svg>
